FFmpeg version SVN-r25716, Copyright (c) 2000-2010 the FFmpeg developers  built on Nov 10 2010 12:23:18 with gcc 4.1.2 20080704 (Red Hat 4.1.2-48)  configuration: --enable-libmp3lame --enable-shared --disable-mmx --arch=x86_64  libavutil     50.33. 0 / 50.33. 0  libavcore      0.12. 1 /  0.12. 1  libavcodec    52.94. 4 / 52.94. 4  libavformat   52.84. 0 / 52.84. 0  libavdevice   52. 2. 2 / 52. 2. 2  libavfilter    1.59. 0 /  1.59. 0  libswscale     0.12. 0 /  0.12. 0Input #0, avi, from '/RAID10/data/converted_video_files/11969.avi':  Duration: 00:00:17.88, start: 0.000000, bitrate: 7176 kb/s    Stream #0.0: Video: mpeg4, yuv420p, 720x480 [PAR 1:1 DAR 3:2], 25 tbr, 29.97 tbn, 25 tbc    Stream #0.1: Audio: pcm_s16le, 48000 Hz, 2 channels, s16, 1536 kb/s[buffer @ 0x1dd43a00] w:720 h:480 pixfmt:yuv420pOutput #0, flv, to '/RAID10/data/converted_video_files/11969.flv':  Metadata:    encoder         : Lavf52.84.0    Stream #0.0: Video: flv, yuv420p, 720x480 [PAR 1:1 DAR 3:2], q=2-31, 600 kb/s, 1k tbn, 24 tbc    Stream #0.1: Audio: libmp3lame, 22050 Hz, 2 channels, s16, 96 kb/sStream mapping:  Stream #0.0 -> #0.0  Stream #0.1 -> #0.1Press [q] to stop encodingframe=   38 fps=  0 q=8.6 size=     313kB time=1.62 bitrate=1579.2kbits/s dup=0 drop=9    frame=   69 fps= 65 q=15.3 size=     496kB time=2.92 bitrate=1393.0kbits/s dup=0 drop=17    frame=   99 fps= 64 q=10.7 size=     604kB time=4.17 bitrate=1187.2kbits/s dup=0 drop=24    frame=  130 fps= 63 q=23.0 size=     796kB time=5.46 bitrate=1195.0kbits/s dup=0 drop=32    frame=  165 fps= 64 q=16.5 size=     886kB time=6.92 bitrate=1049.7kbits/s dup=0 drop=41    frame=  203 fps= 66 q=17.8 size=    1053kB time=8.50 bitrate=1014.9kbits/s dup=0 drop=50    frame=  247 fps= 69 q=16.9 size=    1179kB time=10.33 bitrate= 934.5kbits/s dup=0 drop=61    frame=  285 fps= 70 q=13.9 size=    1289kB time=11.92 bitrate= 886.1kbits/s dup=0 drop=71    frame=  323 fps= 71 q=19.2 size=    1460kB time=13.50 bitrate= 885.9kbits/s dup=0 drop=80    frame=  364 fps= 72 q=18.4 size=    1633kB time=15.21 bitrate= 879.5kbits/s dup=0 drop=91    frame=  407 fps= 73 q=24.6 size=    1770kB time=17.00 bitrate= 852.8kbits/s dup=0 drop=101    frame=  429 fps= 73 q=23.3 Lsize=    1834kB time=17.92 bitrate= 838.7kbits/s dup=0 drop=107    video:1606kB audio:210kB global headers:0kB muxing overhead 0.977050%